<svg id="Capa_1" data-name="Capa 1" xmlns="http://www.w3.org/2000/svg" viewBox="0 0 195 180"><defs><style>.cls-1{fill:none;stroke:#71daf3;stroke-miterlimit:10;stroke-width:5px;}.cls-2{fill:#fc036b;}</style></defs><path class="cls-1" d="M67,87.68,35.28,60.11S18.26,45.34,38.52,32c0,0,15.2-9,28.5,3.59,0,0,17.73-15.29,29.76-1.36S99.3,58,99.3,58"/><path class="cls-2" d="M143.29,81.75A41.08,41.08,0,0,1,151,106.19c-.36,22.68-20.58,40.6-43.1,38.28A49.32,49.32,0,0,1,92.72,140a3.63,3.63,0,0,0-.59-.14v0a1.11,1.11,0,0,0-.94-.87l-.07,0-.6-.43a43.42,43.42,0,0,1-12.82-13.51,39.29,39.29,0,0,1,63.64-45.51c.26.3.57.56.86.84a.27.27,0,0,0,.23.23l.17,0,0-.17c-.09.38,0,.61.44.47l-.08-.09-.09.09a.67.67,0,0,0,.55.82ZM111.6,134.32A29,29,0,1,0,82.72,105C82.66,121.4,95.31,134.26,111.6,134.32Z"/><path class="cls-2" d="M91.2,139a1.11,1.11,0,0,1,.94.87A1.17,1.17,0,0,1,91.2,139Z"/><path class="cls-2" d="M143.39,81.71a.67.67,0,0,1-.55-.82Z"/><path class="cls-2" d="M90.53,138.59l.6.43C90.84,139,90.52,139,90.53,138.59Z"/><path class="cls-2" d="M142.44,80.64a.27.27,0,0,1-.23-.23Z"/><path class="cls-2" d="M143,80.89c-.46.14-.53-.09-.44-.47C142.72,80.57,142.87,80.73,143,80.89Z"/><path class="cls-2" d="M158.76,160.53a8.35,8.35,0,0,1-6.19-2.27c-5.4-5.36-10.74-10.77-16.16-16.11-1-1-1-1.42.19-2.22a37.55,37.55,0,0,0,9.78-9.81c.66-1,1.09-1.09,2-.21,5.4,5.44,10.92,10.77,16.26,16.28a8.53,8.53,0,0,1-5.85,14.34Z"/><path class="cls-2" d="M90.45,106a16.27,16.27,0,0,1,.28-2c.63-2.45,2.54-3.16,4.59-1.65a9.29,9.29,0,0,1,3.68,5.4c1.78,7.58,6.77,12.49,13.17,16.3.87.52,1.73,1,2.58,1.59.44.29,1,.6.94,1.2s-.78.6-1.25.82c-1.34.63-2.52,0-3.8-.27a31.78,31.78,0,0,1-6.66-2.29c-7.2-3.54-12-9-13.3-17.1-.05-.33-.12-.67-.14-1s0-.67,0-1Z"/></svg>