<svg id="Capa_1" data-name="Capa 1" xmlns="http://www.w3.org/2000/svg" viewBox="0 0 195 180"><defs><style>.cls-1{fill:#fc036b;}.cls-2{fill:none;stroke:#71daf3;stroke-miterlimit:10;stroke-width:5px;}</style></defs><path class="cls-1" d="M113.28,113A30.71,30.71,0,1,0,82.56,82.32,30.74,30.74,0,0,0,113.28,113Zm0-53.23A22.52,22.52,0,1,1,90.75,82.32,22.55,22.55,0,0,1,113.28,59.8Z"/><path class="cls-1" d="M137.81,111.47a37.92,37.92,0,0,1-7.93,5.13A41,41,0,0,1,154,149.89H72.53A41,41,0,0,1,96.67,116.6a38.44,38.44,0,0,1-7.93-5.13A49.14,49.14,0,0,0,64.14,154v4.1h98.28V154A49.12,49.12,0,0,0,137.81,111.47Z"/><path class="cls-2" d="M77.57,76.58,45.7,48.89S28.62,34.07,49,20.64c0,0,15.26-9,28.61,3.61,0,0,17.8-15.36,29.88-1.37S110,46.79,110,46.79"/></svg>