<svg id="Capa_1" data-name="Capa 1" xmlns="http://www.w3.org/2000/svg" xmlns:xlink="http://www.w3.org/1999/xlink" viewBox="0 0 322 252"><defs><style>.cls-1{fill:none;}.cls-2{clip-path:url(#clip-path);}.cls-3{fill:#fc036b;}</style><clipPath id="clip-path"><ellipse class="cls-1" cx="166" cy="127.33" rx="93" ry="99.67"/></clipPath></defs><g class="cls-2"><path class="cls-3" d="M230,106.31V102a5.48,5.48,0,0,0-4.23-5.24c-.21.78-.46,1.54-.7,2.31a49.08,49.08,0,0,1,.46,6.22,52.93,52.93,0,0,1-.44,6.45A5.58,5.58,0,0,0,230,106.31Z"/><path class="cls-3" d="M203,153.7l-12.54,65.82h-43.3L134.59,153.7A49.46,49.46,0,0,0,88.81,203v24H248.74V203A49.47,49.47,0,0,0,203,153.7Z"/><polygon class="cls-3" points="155.19 219.52 182.35 219.52 175.62 175.27 175.38 175.27 181.99 163.12 155.55 163.12 162.16 175.27 161.93 175.27 155.19 219.52"/><path class="cls-3" d="M99.39,102v4.31a13.65,13.65,0,0,0,13.89,13.37h.82a55.36,55.36,0,0,0,28.24,33.84,58.36,58.36,0,0,0,52.87,0,55.34,55.34,0,0,0,28.23-33.84h.82a13.66,13.66,0,0,0,13.9-13.37V102a13.51,13.51,0,0,0-10.94-13,51.17,51.17,0,0,0,.37-5.85l0-.56a34.57,34.57,0,0,0-.23-4.45h0a52.36,52.36,0,0,0-8.93-24.73,53,53,0,0,0-42.3-23l-.64-.52a2.06,2.06,0,0,0-1.56-.71,3.24,3.24,0,0,0-2.18,1.16h-.17c-3.09-3.09-5.41-5-7.4-5h0c-1.9.14-10.8,3.3-13.64,5.44-.64.47-1.34,1.08-2.09,1.75a52.75,52.75,0,0,0-37.8,50.58c0,.37,0,.73,0,1.09a41.73,41.73,0,0,0,.18,4.76A13.44,13.44,0,0,0,99.39,102Zm126.36-5.24A5.48,5.48,0,0,1,230,102v4.31a5.58,5.58,0,0,1-4.91,5.43,52.93,52.93,0,0,0,.44-6.45,49.08,49.08,0,0,0-.46-6.22C225.29,98.3,225.54,97.54,225.75,96.76ZM120.81,98.32c.17-1.06.4-2.09.64-3.13,6.66-4.73,15.19-12.1,18.45-17.9,0,0,53.91,12.63,73.55,14.08.56,0,1.1.07,1.61.07a45.42,45.42,0,0,1,1.67,6.88,44.59,44.59,0,0,1,.6,7,43.63,43.63,0,0,1-.29,5,44.73,44.73,0,0,1-1.72,8.2C209.38,137.83,190.78,152,168.77,152s-40.61-14.16-46.55-33.49a44.63,44.63,0,0,1-1.72-8.19,43.93,43.93,0,0,1-.29-5A44.59,44.59,0,0,1,120.81,98.32ZM107.56,102a5.53,5.53,0,0,1,4.79-5.37c0,1.05.05,2.08.07,3.13a45.85,45.85,0,0,0-.38,5.53,51,51,0,0,0,.43,6.45,5.58,5.58,0,0,1-4.91-5.43Z"/></g></svg>