<svg id="Capa_1" data-name="Capa 1" xmlns="http://www.w3.org/2000/svg" viewBox="0 0 322 252"><defs><style>.cls-1{fill:#fc036b;}</style></defs><path class="cls-1" d="M117.8,100.28c4.9,0,9.79-.06,14.68,0,8.52.11,15.28,5.41,17.14,13.64q7.71,34.09,15.25,68.23c.87,3.88,0,4.89-4.08,4.91-3.1,0-6.21,0-9.32,0-3.37.09-5,1.71-5.06,5.1-.08,4.61,0,9.22,0,13.83-.07,5.61-4.16,9.89-9.41,10a9.64,9.64,0,0,1-9.62-9.49c-.17-3.1,0-6.21-.07-9.32-.15-5.68-4.2-9.86-9.49-9.86s-9.35,4.17-9.49,9.85c-.07,2.91,0,5.83,0,8.75-.18,5.86-4.3,10.12-9.64,10.07s-9.37-4.38-9.42-10.22c0-4.42,0-8.84,0-13.27-.05-3.72-1.65-5.32-5.35-5.4-3-.07-6,0-9,0-4.2,0-5-1-4-5.16q4.31-19.26,8.62-38.51a6.34,6.34,0,0,0,.34-1.94c-.06-.67-.29-1.73-.72-1.89a2.62,2.62,0,0,0-2.22.38c-1.83,1.61-3.49,3.42-5.25,5.13-4.37,4.25-10.14,4.52-14.09.67a10.1,10.1,0,0,1,.14-14.45c6.86-7,13.72-14,20.81-20.72A37.25,37.25,0,0,1,104,100.31c4.61-.11,9.23,0,13.84,0Z"/><path class="cls-1" d="M185.23,162.7q0-20.61,0-41.23c0-12.85,8.37-21.17,21.23-21.19,10.26,0,20.53,0,30.79,0a13.57,13.57,0,0,1,10.34,4.35q13.31,13.84,26.58,27.72a9.61,9.61,0,0,1,.07,13.7c-3.83,3.79-9.6,3.77-13.69-.19-4.39-4.27-8.62-8.7-13-12.93-1-.93-2.44-1.35-3.69-2-.47,1.41-1.33,2.82-1.34,4.24-.08,23.16-.05,46.32-.08,69.48a17,17,0,0,1-.4,4.46,9.5,9.5,0,0,1-18.63-2.84c-.14-5.93,0-11.86-.07-17.79a15.42,15.42,0,0,0-.42-4.19,9.44,9.44,0,0,0-10.24-6.63,9.22,9.22,0,0,0-8.22,8.66c-.21,6.11-.05,12.24-.14,18.36a17.36,17.36,0,0,1-.65,5,9.45,9.45,0,0,1-18.37-3.15c-.07-14.59,0-29.18,0-43.78Z"/><path class="cls-1" d="M118.47,89.84c-15.38.71-28.76-11.93-29.6-27.95C88.05,46.27,100.74,32.68,116.79,32c15.85-.65,29.23,12,29.93,28.22C147.38,75.78,134.68,89.09,118.47,89.84Z"/><path class="cls-1" d="M214.75,89.86c-15.62.39-29-12.65-29.29-28.6-.31-15.68,12.39-28.81,28.29-29.25S243,44.47,243.35,60.58C243.7,76.25,230.8,89.46,214.75,89.86Z"/></svg>