<svg id="Capa_1" data-name="Capa 1" xmlns="http://www.w3.org/2000/svg" viewBox="0 0 322 252"><defs><style>.cls-1{fill:#fc036b;}</style></defs><path class="cls-1" d="M261.79,217.38c-1.44,3.22-3.94,4.26-7.42,4.25q-89.71-.1-179.41,0a13.78,13.78,0,0,1-3-.17,5.67,5.67,0,0,1,1.31-11.19c4.43-.07,8.85,0,13.28,0h2.26V175.29c5.07,1.1,9.61-.32,14.15-1.7,3.56-1.08,7.12-2.18,10.71-3.17a41.42,41.42,0,0,1,23.17.45c6,1.75,12,3.57,18.11,4.73,9.73,1.86,19.37.81,28.83-2.07,4.53-1.37,9.05-2.8,13.67-3.82a39,39,0,0,1,19.84,1.13c3.93,1.18,7.88,2.29,11.79,3.52a23.37,23.37,0,0,0,11.43,1V210.2c4.95,0,9.67,0,14.39,0a14.43,14.43,0,0,1,2.62.24c2.2.42,3.27,2.15,4.29,3.9Z"/><path class="cls-1" d="M164.87,133.33q34.32,0,68.65,0a20.29,20.29,0,0,1,4.34.34c4.73,1.06,7.42,4.51,7.45,9.39,0,4.17,0,8.34,0,12.51,0,6-4.8,9.84-10.66,8.45A107.54,107.54,0,0,1,224.11,161a56.56,56.56,0,0,0-38.43.06c-7.48,2.61-15.14,4.39-23.19,4-6.65-.3-12.94-2.14-19.2-4.13-7.83-2.5-15.82-4.33-24-3-6,1-11.9,2.76-17.83,4.23-2.26.57-4.48,1.34-6.74,1.91-4.42,1.13-11-1.58-10.69-8.48.22-4.22,0-8.47,0-12.7a9.14,9.14,0,0,1,8.2-9.33,28,28,0,0,1,3.78-.21Z"/><path class="cls-1" d="M176,119.91H153.32c0-.7-.09-1.32-.09-1.93q0-19,0-38.11c0-4.48,1.81-6.27,6.33-6.27,3.79,0,7.58,0,11.37,0a4.92,4.92,0,0,1,5.17,5.12c0,13.53,0,27.05,0,40.57A4.85,4.85,0,0,1,176,119.91Z"/><path class="cls-1" d="M130.14,119.92H107.46c0-.7-.08-1.31-.08-1.93q0-19,0-38.11c0-4.47,1.83-6.28,6.34-6.28,3.73,0,7.46,0,11.19,0,3.22,0,5.34,2,5.35,5.13.07,13.53,0,27.05,0,40.58A4.91,4.91,0,0,1,130.14,119.92Z"/><path class="cls-1" d="M221.83,119.92H199.14c0-.76-.09-1.44-.09-2.11q0-18.87,0-37.73c0-4.74,1.76-6.48,6.53-6.48,3.73,0,7.45,0,11.18,0A5,5,0,0,1,222,78.73c.05,13.47,0,26.93,0,40.39A4.83,4.83,0,0,1,221.83,119.92Z"/><path class="cls-1" d="M118.75,64.1C111,64,105.3,56.53,108,49.27c2.12-5.71,5.12-11.1,8-16.51a3.24,3.24,0,0,1,5.77,0c2.85,5.48,5.88,10.93,8,16.7C132.36,56.72,126.48,64.16,118.75,64.1Z"/><path class="cls-1" d="M222.09,52.55c-.35,5-2.48,8.49-6.79,10.45a10.81,10.81,0,0,1-12.22-1.69c-3.61-3.09-5.31-7.22-3.49-11.73,2.33-5.78,5.21-11.34,8.07-16.87a3.24,3.24,0,0,1,5.68-.07c3.29,5.54,6.49,11.14,8.3,17.39A21.94,21.94,0,0,1,222.09,52.55Z"/><path class="cls-1" d="M176.24,52.73c-.39,5-2.63,8.5-7.05,10.39a10.84,10.84,0,0,1-12.18-2c-3.51-3.13-5-7.27-3.24-11.66,2.3-5.72,5.17-11.21,8-16.69a3.25,3.25,0,0,1,5.68-.18c3.38,5.62,6.61,11.35,8.44,17.72A15.91,15.91,0,0,1,176.24,52.73Z"/></svg>