<svg id="Capa_1" data-name="Capa 1" xmlns="http://www.w3.org/2000/svg" viewBox="0 0 322 252"><defs><style>.cls-1{fill:#fc036b;}</style></defs><path class="cls-1" d="M235.16,38.9a6.07,6.07,0,0,0,.73.34C243.41,41.55,246,49.83,241.1,56s-9.81,12-14.72,18.06L211,92.88c-.32.38-.67.75-.89,1L188.64,72.39c.79-.67,1.75-1.49,2.73-2.29,11.59-9.47,23.15-19,34.8-28.36a31.68,31.68,0,0,1,5.27-2.84Z"/><path class="cls-1" d="M162.13,81.57a30.2,30.2,0,0,0-5.52,11.08c-.11.43-.9.87-1.44,1-9.89,2.05-17.33,7.24-21.45,16.67-2,4.57-2.48,9.42-2.45,14.36,0,2,0,4.05-.17,6.07a15.58,15.58,0,0,1-2.73,7.15,11.74,11.74,0,0,0,6.73,17.64,10.49,10.49,0,0,0,9.37-1.34c3.46-2.52,7.31-3.06,11.35-3,5,.07,10-.08,14.81-1.83,9.88-3.6,15.61-10.85,17.87-20.93a3.37,3.37,0,0,1,2.81-3,25.86,25.86,0,0,0,13.33-8.76c5.41-6.54,10.76-13.15,16.13-19.73.28-.33.58-.64,1-1.17V162H80.91c0-.51-.09-1.05-.09-1.59q0-32.49,0-65a13.49,13.49,0,0,1,13.85-13.9q33.09-.06,66.18,0C161.17,81.5,161.49,81.53,162.13,81.57Z"/><path class="cls-1" d="M221.74,172.38c1.44,8.31-2.69,15.4-10.1,17.25a19,19,0,0,1-4.52.46c-11.65,0-23.29,0-34.94,0h-2.11v11.57c2.79,0,5.58,0,8.38,0a4.84,4.84,0,0,1,4.64,3.07,4.78,4.78,0,0,1-.87,5.34,5.38,5.38,0,0,1-4.4,1.72q-16.22,0-32.42,0c-5,0-9.91-.16-14.85,0-10.44.41-11.1-1.44-11.18-5.06-.07-3.33.43-5.68,11.09-5.11.72,0,1.44,0,2.34,0V190.11h-2.16c-11.87,0-23.74,0-35.62,0-7.44,0-13-4.64-14-11.72a42.68,42.68,0,0,1,0-6Z"/><path class="cls-1" d="M157.36,140.69c-2.85.27-5.71.44-8.54.84a20.91,20.91,0,0,0-9.16,3.61,2.53,2.53,0,0,1-2.33,0c-.36-.24-.41-1.67-.05-2.17,3.45-4.81,4.17-10.31,4.33-16a57.79,57.79,0,0,1,.55-9.23c1.48-7.68,7.11-12.82,15-14.17a19.18,19.18,0,0,1,19.12,8.73c6.82,10.77,1.34,27.79-14.86,28.6-1.35.06-2.7,0-4.05,0Z"/><path class="cls-1" d="M203.32,102.36c-4.42,4.72-7.43,11.21-14.71,13.22C185.42,104.41,178.28,97.15,167,93.9c1.95-7.27,8.5-10.26,13.19-14.7Z"/></svg>